<svg xmlns="http://www.w3.org/2000/svg" viewBox="0 0 200 200" role="img" aria-label="Apple 蘋果">
  <defs>
    <linearGradient id="appleSkin" x1="0" x2="0" y1="0" y2="1">
      <stop offset="0%" stop-color="#ff867c" />
      <stop offset="100%" stop-color="#e53935" />
    </linearGradient>
  </defs>
  <rect width="200" height="200" fill="#fef6f3" rx="24" />
  <path d="M90 36c10 14 31 14 41 0" stroke="#6d4c41" stroke-width="8" stroke-linecap="round" fill="none" />
  <path d="M80 52c-30 0-46 28-42 60s28 60 62 60c34 0 58-28 62-60s-12-60-42-60c-12 0-20 8-20 8s-7-8-20-8z" fill="url(#appleSkin)" />
  <path d="M120 48c10-18 22-22 32-20" stroke="#2e7d32" stroke-width="8" stroke-linecap="round" fill="none" />
  <path d="M122 46c20-8 34 12 20 24s-28-2-28-14c0-4 2-8 8-10z" fill="#66bb6a" />
  <circle cx="92" cy="96" r="6" fill="#fff3e0" opacity="0.8" />
</svg>
