<svg xmlns="http://www.w3.org/2000/svg" viewBox="0 0 200 200" role="img" aria-label="Cat 貓咪">
  <rect width="200" height="200" fill="#f6f4ff" rx="24" />
  <path d="M60 70 76 48c2-3 6-4 9-2l17 12" fill="#d1c4e9" />
  <path d="M140 70 124 48c-2-3-6-4-9-2l-17 12" fill="#d1c4e9" />
  <circle cx="100" cy="112" r="54" fill="#d1c4e9" stroke="#9575cd" stroke-width="6" />
  <circle cx="78" cy="110" r="8" fill="#673ab7" />
  <circle cx="122" cy="110" r="8" fill="#673ab7" />
  <path d="M88 128q12 12 24 0" stroke="#7b1fa2" stroke-width="6" stroke-linecap="round" fill="none" />
  <path d="M70 138q30 16 60 0" stroke="#7e57c2" stroke-width="6" stroke-linecap="round" fill="none" />
  <path d="M82 90c-4-6-12-10-20-10" stroke="#9575cd" stroke-width="6" stroke-linecap="round" />
  <path d="M118 90c4-6 12-10 20-10" stroke="#9575cd" stroke-width="6" stroke-linecap="round" />
</svg>
