<svg xmlns="http://www.w3.org/2000/svg" viewBox="0 0 200 200" role="img" aria-label="Dog 小狗">
  <rect width="200" height="200" fill="#fff8f3" rx="24" />
  <path d="M54 76c-6-12-6-32 8-32s24 16 28 26" fill="#d7ccc8" stroke="#8d6e63" stroke-width="6" stroke-linecap="round" />
  <path d="M146 76c6-12 6-32-8-32s-24 16-28 26" fill="#d7ccc8" stroke="#8d6e63" stroke-width="6" stroke-linecap="round" />
  <circle cx="100" cy="116" r="56" fill="#d7ccc8" stroke="#8d6e63" stroke-width="6" />
  <circle cx="76" cy="110" r="8" fill="#4e342e" />
  <circle cx="124" cy="110" r="8" fill="#4e342e" />
  <path d="M92 126c0 8 16 8 16 0" stroke="#4e342e" stroke-width="6" stroke-linecap="round" />
  <path d="M100 134c0 10 8 18 8 24 0 6-6 10-12 10s-12-4-12-10c0-6 8-14 8-24" fill="#6d4c41" />
  <path d="M72 92c-10-6-18-4-26-8" stroke="#8d6e63" stroke-width="6" stroke-linecap="round" />
  <path d="M128 92c10-6 18-4 26-8" stroke="#8d6e63" stroke-width="6" stroke-linecap="round" />
</svg>
